<?xml version="1.0" encoding="utf-8"?>
<!-- Generator: Adobe Illustrator 23.0.0, SVG Export Plug-In . SVG Version: 6.00 Build 0)  -->
<svg version="1.1" id="Camada_1" xmlns="http://www.w3.org/2000/svg" xmlns:xlink="http://www.w3.org/1999/xlink" x="0px" y="0px"
	 viewBox="0 0 448 512" style="enable-background:new 0 0 448 512;" xml:space="preserve">
<g>
	<circle cx="174.3" cy="384.7" r="28.4"/>
	<path d="M422.1,213.2h-77.1V97.4c0-20.2-16.4-36.6-36.6-36.6H40.1c-20.2,0-36.6,16.4-36.6,36.6v317.1c0,20.2,16.4,36.6,36.6,36.6
		h215.3v-0.2c1,0.1,2.1,0.2,3.1,0.2h163.6c12.3,0,22.3-10,22.3-22.3V235.5C444.4,223.2,434.5,213.2,422.1,213.2z M17.5,401.6V110.4
		c0-18.6,15.1-33.6,33.6-33.6h246.4c18.6,0,33.6,15.1,33.6,33.6v102.8h-72.6c-12.3,0-22.3,10-22.3,22.3v193.3c0,2.2,0.3,4.4,0.9,6.4
		H51.1C32.5,435.2,17.5,420.2,17.5,401.6z M436,420.9c0,11.3-9.2,20.5-20.5,20.5H265.2c-11.3,0-20.5-9.2-20.5-20.5V243.4
		c0-11.3,9.2-20.5,20.5-20.5h150.2c11.3,0,20.5,9.2,20.5,20.5V420.9z"/>
	<circle cx="340.3" cy="410.6" r="17.3"/>
</g>
</svg>
